<svg id="Capa_1" enable-background="new 0 0 511.381 511.381" height="512" viewBox="0 0 511.381 511.381" width="512" xmlns="http://www.w3.org/2000/svg"><path d="m233.382 6.75h31.118v77.794h-31.118z"/><path id="path-1_16_" d="m420.087 240.132h77.794v31.118h-77.794z" transform="translate(13.5 7.5)"/><path id="path-1_15_" d="m0 240.132h77.794v31.118h-77.794z" transform="translate(0 7.5)"/><path d="m172.401 333.183h77.786v31.114h-77.786z" transform="matrix(.707 -.707 .707 .707 1.459 9.977)"/><path d="m-17.103 106.556h31.114v77.786h-31.114z" transform="matrix(.707 -.707 .707 .707 -1.337 3.227)"/><path d="m248.941 115.662c-77.217 0-140.029 62.812-140.029 140.029 0 10.729 1.464 21.074 3.761 31.118h272.537c2.296-10.043 3.761-20.389 3.761-31.118-.001-77.217-62.814-140.029-140.03-140.029z"/><path d="m133.587 433.28 44.002 44.002 40.234-40.234v67.584h62.235v-67.584l40.234 40.234 44.002-44.002-115.353-115.354z"/></svg>